<svg viewBox="0 -49 512 512" xmlns="http://www.w3.org/2000/svg"><path d="m503.441406 287.652344c5.621094-10.210938 8.558594-21.617188 8.558594-33.53125 0-18.683594-7.394531-35.660156-19.394531-48.199219v-176.414063c0-16.269531-13.238281-29.507812-29.507813-29.507812h-338.570312c-4.144532 0-7.5 3.355469-7.5 7.5s3.355468 7.5 7.5 7.5h338.570312c8 0 14.507813 6.507812 14.507813 14.507812v164.503907c-5.585938-3.300781-11.664063-5.859375-18.105469-7.503907v-80.304687c0-7.289063-2.589844-13.984375-6.894531-19.214844v-29.480469c0-9.652343-7.851563-17.507812-17.507813-17.507812h-358.195312c-9.652344 0-17.507813 7.855469-17.507813 17.507812v29.480469c-4.304687 5.230469-6.894531 11.925781-6.894531 19.214844v80.304687c-6.441406 1.648438-12.519531 4.203126-18.105469 7.503907v-164.503907c0-8 6.507813-14.507812 14.507813-14.507812h47.625c4.140625 0 7.5-3.355469 7.5-7.5s-3.359375-7.5-7.5-7.5h-47.625c-16.269532 0-29.507813 13.238281-29.507813 29.507812v176.414063c-12 12.539063-19.394531 29.515625-19.394531 48.199219 0 11.914062 2.9375 23.320312 8.558594 33.53125-5.128906 3.195312-8.558594 8.867187-8.558594 15.339844v93.167968c0 9.972656 8.113281 18.082032 18.082031 18.082032h20.941407c9.96875 0 18.082031-8.109376 18.082031-18.082032 0-19.804687 16.113281-35.917968 35.917969-35.917968h325.953124c19.804688 0 35.917969 16.113281 35.917969 35.917968 0 9.972656 8.113281 18.082032 18.082031 18.082032h20.941407c9.96875 0 18.082031-8.109376 18.082031-18.082032v-93.167968c0-6.472657-3.429688-12.144532-8.558594-15.339844zm-426.539062-232.652344h358.195312c1.382813 0 2.507813 1.125 2.507813 2.507812v19.601563c-2.667969-.773437-5.480469-1.195313-8.394531-1.195313h-138.570313c-16.703125 0-30.289063 13.589844-30.289063 30.289063v78.132813h-8.703124v-78.132813c0-16.699219-13.585938-30.289063-30.289063-30.289063h-138.570313c-2.914062 0-5.726562.421876-8.394531 1.195313v-19.601563c0-1.382812 1.125-2.507812 2.507813-2.507812zm-9.402344 51.203125c0-8.429687 6.859375-15.289063 15.289062-15.289063h138.570313c8.429687 0 15.289063 6.859376 15.289063 15.289063v78.132813h-166.859376c-.769531 0-1.527343.03125-2.289062.058593zm2.289062 93.132813h259.210938c4.144531 0 7.5-3.355469 7.5-7.5 0-4.144532-3.355469-7.5-7.5-7.5h-53.648438v-78.132813c0-8.429687 6.859376-15.289063 15.289063-15.289063h138.570313c8.429687 0 15.289062 6.859376 15.289062 15.289063v78.191406c-.761719-.027343-1.519531-.058593-2.289062-.058593h-85.210938c-4.144531 0-7.5 3.355468-7.5 7.5 0 4.144531 3.355469 7.5 7.5 7.5h85.210938c30.210937 0 54.789062 24.578124 54.789062 54.785156 0 11.136718-3.269531 21.703125-9.472656 30.789062h-463.054688c-6.203125-9.085937-9.472656-19.652344-9.472656-30.789062 0-30.207032 24.578125-54.785156 54.789062-54.785156zm427.210938 196.824218c0 1.699219-1.382812 3.082032-3.082031 3.082032h-20.941407c-1.699218 0-3.082031-1.382813-3.082031-3.082032 0-28.074218-22.839843-50.917968-50.917969-50.917968h-325.953124c-28.078126 0-50.917969 22.84375-50.917969 50.917968 0 1.699219-1.382813 3.082032-3.082031 3.082032h-20.941407c-1.699219 0-3.082031-1.382813-3.082031-3.082032v-93.167968c0-1.699219 1.382812-3.082032 3.082031-3.082032h2.542969c.011719 0 .023438.003906.035156.003906.007813 0 .015625-.003906.023438-.003906h470.644531.011719.019531 2.558594c1.699219 0 3.082031 1.382813 3.082031 3.082032zm0 0"/></svg>