<svg height="512" viewBox="0 0 60 60" width="512" xmlns="http://www.w3.org/2000/svg"><g id="Page-1" fill="none" fill-rule="evenodd"><g id="051---payment-error" fill="rgb(0,0,0)" fill-rule="nonzero"><path id="Shape" d="m53 0h-46c-3.86416566.00440864-6.99559136 3.13583434-7 7v28c.00440864 3.8641657 3.13583434 6.9955914 7 7h13.355l-7.981 13.85c-.5020908.8579397-.5020908 1.9200603 0 2.778.4841369.8518966 1.3901546 1.3763929 2.37 1.372h30.512c.9794883.004031 1.8850388-.5204162 2.369-1.372.5020908-.8579397.5020908-1.9200603 0-2.778l-7.979-13.85h13.354c3.8641657-.0044086 6.9955914-3.1358343 7-7v-28c-.0044086-3.86416566-3.1358343-6.99559136-7-7zm-7.107 57.627c-.1287237.2309017-.3726426.3737301-.637.373h-30.512c-.2643574.0007301-.5082763-.1420983-.637-.373-.1418934-.2402825-.1418934-.5387175 0-.779l15.255-26.474c.1292214-.2310531.3732667-.3741849.638-.3741849s.5087786.1431318.638.3741849l15.256 26.474c.141585.2404646.1412019.5388997-.001.779zm12.107-22.627c-.0033061 2.7600532-2.2399468 4.9966939-5 5h-14.507l-6.122-10.624c-.4862816-.850742-1.3910859-1.3757436-2.371-1.3757436s-1.8847184.5250016-2.371 1.3757436l-6.122 10.624h-14.507c-2.76005315-.0033061-4.99669388-2.2399468-5-5v-28c.00330612-2.76005315 2.23994685-4.99669388 5-5h46c2.7600532.00330612 4.9966939 2.23994685 5 5z"/><path id="Shape" d="m16 20c1.6568542 0 3-1.3431458 3-3v-8c0-1.65685425-1.3431458-3-3-3h-8c-1.65685425 0-3 1.34314575-3 3v8c0 1.6568542 1.34314575 3 3 3zm-1-8h2v2h-2zm2-3v1h-2v-2h1c.5522847 0 1 .44771525 1 1zm-4-1v6h-2v-6zm-6 6v-2h2v2zm1-6h1v2h-2v-1c0-.55228475.44771525-1 1-1zm-1 9v-1h10v1c0 .5522847-.4477153 1-1 1h-8c-.55228475 0-1-.4477153-1-1z"/><path id="Shape" d="m49 7c-1.4770517.00651101-2.9003581.55483979-4 1.541-2.402033-2.16265823-6.0855011-2.03394843-8.3307222.29109674-2.2452212 2.32504516-2.2452212 6.01076136 0 8.33580656 2.2452211 2.3250451 5.9286892 2.4537549 8.3307222.2910967 1.9906106 1.7922202 4.9280477 2.0479193 7.1983909.6266082 2.2703432-1.421311 3.3236022-4.1753199 2.5810832-6.7488872-.742519-2.5735674-3.1009408-4.34324696-5.7794741-4.336721zm-8 10c-2.209139 0-4-1.790861-4-4s1.790861-4 4-4 4 1.790861 4 4c0 1.060866-.4214274 2.0782816-1.1715729 2.8284271s-1.7675611 1.1715729-2.8284271 1.1715729zm8 0c-1.0224692-.0096986-2.0026111-.4096252-2.74-1.118.9866875-1.7946567.9866875-3.9693433 0-5.764 1.3006531-1.23628494 3.2666041-1.45220095 4.8045742-.52767567 1.5379701.92452527 2.2695491 2.76201677 1.787901 4.49063307-.4816482 1.7286162-2.0580162 2.9230394-3.8524752 2.9190426z"/><path id="Shape" d="m7 24c-.55228475 0-1 .4477153-1 1s.44771525 1 1 1h6c.5522847 0 1-.4477153 1-1s-.4477153-1-1-1z"/><path id="Shape" d="m34 24h-16c-.5522847 0-1 .4477153-1 1s.4477153 1 1 1h16c.5522847 0 1-.4477153 1-1s-.4477153-1-1-1z"/><path id="Shape" d="m23 29h-16c-.55228475 0-1 .4477153-1 1s.44771525 1 1 1h16c.5522847 0 1-.4477153 1-1s-.4477153-1-1-1z"/><path id="Shape" d="m41 29h-5c-.5522847 0-1 .4477153-1 1s.4477153 1 1 1h5c.5522847 0 1-.4477153 1-1s-.4477153-1-1-1z"/><path id="Shape" d="m27 38v8c0 1.1045695.8954305 2 2 2h2c1.1045695 0 2-.8954305 2-2v-8c0-1.1045695-.8954305-2-2-2h-2c-1.1045695 0-2 .8954305-2 2zm4 8h-2v-8h2z"/><path id="Shape" d="m31 50h-2c-1.1045695 0-2 .8954305-2 2v2c0 1.1045695.8954305 2 2 2h2c1.1045695 0 2-.8954305 2-2v-2c0-1.1045695-.8954305-2-2-2zm-2 4v-2h2v2z"/></g></g></svg>