<svg id="Line_stroke_cut_Ex" height="512" viewBox="0 0 512 512" width="512" xmlns="http://www.w3.org/2000/svg" data-name="Line stroke cut Ex"><g><path d="m407.252 236.933 12.6-9.866a208.11 208.11 0 0 0 -122.258-75.695l-3.184 15.68a192.084 192.084 0 0 1 112.842 69.881z"/><path d="m462.091 326.921-15.854 2.158a194.143 194.143 0 0 1 1.736 22.921h-319.973v16h28.223a49.618 49.618 0 0 1 44.622 27.578 65.528 65.528 0 0 0 58.932 36.422h7.279a50.126 50.126 0 0 1 39.91 19.955l21.034 28.045h-296v-64h-16v72a8 8 0 0 0 8 8h320a8 8 0 0 0 6.4-12.8l-30.633-40.845a66.208 66.208 0 0 0 -52.711-26.355h-7.279a49.618 49.618 0 0 1 -44.622-27.578 66.1 66.1 0 0 0 -15.81-20.422h296.655v-16h-32.025a210.54 210.54 0 0 0 -1.884-25.079z"/><path d="m32 368h72a8 8 0 0 0 7.986-7.53c3.687-62.674 17.882-100 29.918-120.906a39.479 39.479 0 0 0 5.51-1.223 31.987 31.987 0 0 0 60.586-14.341 31.811 31.811 0 0 0 -4.295-16h20.295a8 8 0 0 0 5.657-2.343l11.363-11.363 18.542 12.362a8.005 8.005 0 0 0 4.438 1.344h32a8 8 0 0 0 7.452-10.91 96.086 96.086 0 0 0 -75.617-60.1l4.057-15.137 22.24 1.434a8 8 0 0 0 4.514-1.056l27.713-16a8 8 0 0 0 1-13.173 96.026 96.026 0 0 0 -108.012-8.18 103.083 103.083 0 0 0 -29.896 26.322 101.117 101.117 0 0 0 -22.436-17.622 95.816 95.816 0 0 0 -29.471-11.084l-3.088 15.7a79.865 79.865 0 0 1 24.559 9.238 85.581 85.581 0 0 1 21.396 17.568 100.308 100.308 0 0 0 -11.54 34.311l-35.647-20.58-5-18.656a8 8 0 0 0 -8.243-5.913l-26.367 1.7-14.614-8.438a80.549 80.549 0 0 1 40.918-10.724l.164-16a96.511 96.511 0 0 0 -61.082 21.054 8 8 0 0 0 1 13.174l27.713 16a8.027 8.027 0 0 0 4.515 1.055l22.239-1.434 4.159 15.521a7.969 7.969 0 0 0 .341 1 96.067 96.067 0 0 0 -62.867 75.693 8 8 0 0 0 9.626 9.049l23.436-5.167a8 8 0 0 0 4.044-2.268l15.444-16.065 13.543 8.649a7.991 7.991 0 0 0 6.029 1.07l3.6-.794c-13.632 22.081-24.948 51.425-33.695 87.419-5.02 20.658-7.838 38.085-9.152 47.344h-24.975a8 8 0 0 0 -8 8v40h16zm104-192a24 24 0 1 1 -24 24 24.028 24.028 0 0 1 24-24zm56 48a16 16 0 0 1 -30.488 6.785 40.039 40.039 0 0 0 13.68-22.764c.268-.013.538-.021.808-.021a16.019 16.019 0 0 1 16 16zm91.309-32h-16.887l-21.984-14.656a8 8 0 0 0 -10.095 1l-13.656 13.656h-45.487a40.031 40.031 0 0 0 -13.4-22.551 88.851 88.851 0 0 1 52.2-17.449 80.051 80.051 0 0 1 69.309 40zm-95.964-93.268a80.048 80.048 0 0 1 80.023-.013l-14.624 8.443-26.368-1.7a8.013 8.013 0 0 0 -8.242 5.913l-5 18.655-10.954 6.325.194.337a105.749 105.749 0 0 0 -56.06 24.657q-.757-.2-1.525-.375c3.666-25.231 19.788-49.097 42.556-62.242zm-99.332 102.96-16.279-10.392a8 8 0 0 0 -10.072 1.2l-18.313 19.041-8.678 1.914a80.05 80.05 0 0 1 59.07-53.986c.821-.182 1.663-.354 2.515-.514l15.725 9.079a39.965 39.965 0 0 0 -15.981 31.897zm17.379 24.031a40.109 40.109 0 0 0 18.977 12.552c-15.085 29.089-24.436 67.248-27.857 113.725h-31.35c3.412-22.82 14.575-84.584 40.23-126.277z"/><path d="m328 104h48v-16h-48a16 16 0 1 1 5.76-30.934 8 8 0 0 0 10.719-5.873 24.007 24.007 0 0 1 47.228 1.038 8 8 0 0 0 6.379 6.611c18.445 3.579 46.286 17.225 49.59 29.158h-55.676v16h64a8 8 0 0 0 8-8v-5.718c0-24.058-36.547-40.522-57.729-45.977a40.018 40.018 0 0 0 -75.009-4.141 32.445 32.445 0 0 0 -3.262-.164 32 32 0 0 0 0 64z"/><path d="m436.8 238.4a33.409 33.409 0 0 0 -31.884 22.941c-16.965 4.667-44.916 18.108-44.916 38.085v4.574a8 8 0 0 0 8 8h100.8a27.2 27.2 0 0 0 0-54.4q-.811 0-1.617.046a33.737 33.737 0 0 0 -30.383-19.246zm27.966 35.947a11.2 11.2 0 1 1 4.034 21.653h-91.81c4.325-7.973 21.965-17.424 36.047-20.156a8 8 0 0 0 6.378-6.611 17.605 17.605 0 0 1 34.633-.76 8 8 0 0 0 10.718 5.874z"/><path d="m200 298.857a31.978 31.978 0 0 0 -47.85-.192l11.922 10.67a16 16 0 0 1 27.928 10.665h16a16 16 0 0 1 27.928-10.665l11.922-10.67a31.978 31.978 0 0 0 -47.85.192z"/><path d="m48 400h56v16h-56z"/><path d="m128 440h56v16h-56z"/><path d="m160 392h16v16h-16z"/><path d="m64 448h16v16h-16z"/><path d="m336 392h16v16h-16z"/><path d="m456 416h16v16h-16z"/><path d="m400 464h16v16h-16z"/></g></svg>