<?xml version="1.0"?>
<svg xmlns="http://www.w3.org/2000/svg" xmlns:xlink="http://www.w3.org/1999/xlink" xmlns:svgjs="http://svgjs.com/svgjs" version="1.1" width="512" height="512" x="0" y="0" viewBox="0 0 511.999 511.999" style="enable-background:new 0 0 512 512" xml:space="preserve" class=""><g>
<g xmlns="http://www.w3.org/2000/svg">
	<g>
		<g>
			<path d="M93.81,256.56c-0.25-0.609-0.56-1.189-0.92-1.729c-0.36-0.55-0.78-1.061-1.24-1.521c-0.46-0.46-0.97-0.88-1.52-1.24     c-0.54-0.359-1.13-0.67-1.73-0.92c-0.6-0.25-1.23-0.439-1.87-0.569c-3.25-0.66-6.7,0.41-9.03,2.729     c-0.46,0.46-0.87,0.971-1.24,1.521c-0.36,0.54-0.67,1.12-0.92,1.729c-0.25,0.601-0.44,1.23-0.57,1.87s-0.19,1.3-0.19,1.95     s0.06,1.31,0.19,1.96c0.13,0.63,0.32,1.26,0.57,1.87c0.25,0.6,0.56,1.18,0.92,1.72c0.37,0.55,0.78,1.061,1.24,1.521     c1.87,1.859,4.44,2.93,7.08,2.93c2.63,0,5.21-1.07,7.07-2.93c0.46-0.46,0.88-0.971,1.24-1.521c0.36-0.54,0.67-1.12,0.92-1.72     c0.25-0.61,0.44-1.24,0.57-1.87c0.13-0.65,0.2-1.31,0.2-1.96c0-0.65-0.07-1.311-0.2-1.95C94.25,257.79,94.06,257.16,93.81,256.56     z" fill="#e50303" data-original="#000000" style=""/>
			<path d="M376.959,300.495l14.643-14.643l0.405-0.405l20-20l17.383-17.383c2.214-2.214,3.263-5.336,2.835-8.438     c-0.428-3.102-2.283-5.823-5.013-7.354c-4.847-2.72-9.945-4.946-15.205-6.663c-6.474-2.114-13.194-3.446-20-3.965     c-2.144-0.164-4.295-0.256-6.45-0.256c-23.903,0-45.53,9.884-61.046,25.765c-4.703,4.814-8.845,10.175-12.315,15.985     c-7.633,12.781-12.033,27.706-12.033,43.643c0,4.579,0.374,9.143,1.106,13.643c1.118,6.874,3.082,13.596,5.834,20     c1.174,2.733,2.485,5.41,3.945,8.013c1.531,2.729,4.253,4.585,7.354,5.013c0.456,0.063,0.913,0.094,1.367,0.094     c2.633,0,5.182-1.041,7.07-2.929l10.19-10.19l20-20L376.959,300.495z M385.557,241.388c2.158,0,4.31,0.119,6.45,0.333v15.443     l-18.342,18.342l-31.098-17.938C354.071,247.505,369.109,241.388,385.557,241.388z M328.746,320.424h-7.123     c-0.959-4.472-1.46-9.046-1.46-13.643c0-12.301,3.419-23.816,9.349-33.655l29.509,17.022L328.746,320.424z" fill="#e50303" data-original="#000000" style=""/>
			<path d="M476.214,218.73c-0.315-0.364-0.736-0.846-1.248-1.358c-0.512-0.511-0.993-0.932-1.356-1.247     c-17.292-16.8-38.564-28.098-61.603-33.005V115.8c0-20.416-16.609-37.025-37.024-37.025H37.025C16.609,78.776,0,95.386,0,115.802     v187.597c0,20.416,16.609,37.025,37.025,37.025h226.622c5.585,20.265,16.214,38.93,31.251,54.408     c0.317,0.367,0.741,0.851,1.239,1.347c0.518,0.52,1.002,0.943,1.367,1.26c23.755,23.078,55.014,35.785,88.052,35.785     c69.721,0,126.443-56.722,126.443-126.442C511.999,273.743,499.292,242.482,476.214,218.73z M21.329,109.214     c0.03-0.073,0.067-0.142,0.098-0.214c0.172-0.393,0.357-0.778,0.557-1.154c0.077-0.145,0.161-0.286,0.242-0.429     c0.172-0.302,0.351-0.598,0.54-0.887c0.095-0.145,0.19-0.289,0.289-0.431c0.206-0.296,0.423-0.583,0.646-0.864     c0.09-0.113,0.175-0.229,0.268-0.34c0.321-0.384,0.656-0.755,1.009-1.109c0.039-0.04,0.083-0.075,0.122-0.114     c0.316-0.311,0.645-0.61,0.985-0.896c0.123-0.103,0.25-0.2,0.375-0.3c0.271-0.215,0.548-0.424,0.832-0.623     c0.143-0.1,0.286-0.198,0.432-0.294c0.297-0.194,0.601-0.377,0.91-0.553c0.132-0.075,0.262-0.155,0.396-0.227     c0.444-0.237,0.897-0.46,1.363-0.658c0.031-0.013,0.063-0.023,0.094-0.036c0.436-0.182,0.882-0.344,1.336-0.49     c0.155-0.05,0.313-0.091,0.469-0.137c0.341-0.099,0.685-0.189,1.035-0.267c0.178-0.04,0.356-0.076,0.536-0.11     c0.355-0.067,0.715-0.12,1.078-0.165c0.163-0.02,0.326-0.045,0.49-0.06c0.525-0.049,1.055-0.081,1.593-0.081h337.957     c0.538,0,1.068,0.032,1.593,0.081c0.165,0.015,0.327,0.04,0.491,0.06c0.362,0.044,0.722,0.098,1.077,0.165     c0.18,0.034,0.359,0.071,0.537,0.111c0.348,0.078,0.692,0.167,1.032,0.266c0.157,0.046,0.317,0.087,0.472,0.137     c0.451,0.145,0.895,0.307,1.329,0.488c0.033,0.014,0.067,0.024,0.1,0.038c0.466,0.198,0.918,0.42,1.362,0.657     c0.135,0.072,0.266,0.152,0.399,0.229c0.308,0.175,0.611,0.357,0.906,0.551c0.147,0.096,0.292,0.196,0.436,0.296     c0.282,0.198,0.557,0.405,0.827,0.618c0.127,0.101,0.256,0.199,0.381,0.304c0.336,0.283,0.661,0.578,0.974,0.885     c0.043,0.042,0.09,0.081,0.133,0.124c0.352,0.353,0.685,0.723,1.005,1.105c0.095,0.113,0.182,0.232,0.274,0.348     c0.221,0.279,0.436,0.562,0.64,0.854c0.101,0.145,0.198,0.292,0.294,0.439c0.186,0.285,0.363,0.577,0.532,0.874     c0.084,0.147,0.17,0.293,0.249,0.442c0.194,0.366,0.374,0.741,0.542,1.123c0.036,0.083,0.079,0.162,0.114,0.245     c0.178,0.423,0.332,0.858,0.476,1.297l-140.868,81.257c-3.845,2.218-7.825,4.112-11.895,5.705     c-9.483,3.712-19.473,5.741-29.512,6.065c-1.918,0.062-3.838,0.062-5.756,0c-10.039-0.324-20.029-2.353-29.512-6.065     c-4.07-1.594-8.05-3.488-11.895-5.705L20.851,110.516C20.995,110.075,21.15,109.638,21.329,109.214z M392.008,133.115v47.389     h-0.001c-2.142-0.108-4.292-0.165-6.45-0.165c-39.125,0-74.155,17.864-97.367,45.863l-28.797-16.611     c0.296-0.167,0.596-0.324,0.89-0.494L392.008,133.115z M259.113,306.781c0,4.587,0.254,9.139,0.738,13.643H37.025     c-0.538,0-1.068-0.032-1.593-0.081c-0.165-0.015-0.327-0.04-0.49-0.06c-0.363-0.045-0.723-0.098-1.078-0.165     c-0.18-0.034-0.358-0.071-0.536-0.11c-0.349-0.078-0.694-0.168-1.035-0.267c-0.157-0.045-0.315-0.087-0.469-0.137     c-0.453-0.146-0.9-0.308-1.336-0.49c-0.031-0.013-0.063-0.022-0.094-0.036c-0.466-0.198-0.919-0.42-1.363-0.658     c-0.135-0.072-0.264-0.151-0.396-0.227c-0.309-0.176-0.613-0.359-0.91-0.553c-0.146-0.096-0.29-0.194-0.432-0.294     c-0.284-0.199-0.561-0.407-0.832-0.623c-0.125-0.1-0.253-0.197-0.375-0.3c-0.34-0.286-0.669-0.584-0.985-0.896     c-0.04-0.039-0.083-0.075-0.122-0.114c-0.353-0.354-0.688-0.726-1.009-1.109c-0.092-0.111-0.178-0.227-0.268-0.34     c-0.224-0.281-0.441-0.569-0.646-0.864c-0.099-0.142-0.195-0.286-0.289-0.431c-0.189-0.29-0.368-0.586-0.54-0.887     c-0.081-0.143-0.165-0.284-0.242-0.429c-0.2-0.376-0.385-0.762-0.557-1.154c-0.032-0.072-0.069-0.141-0.099-0.214     c-0.179-0.424-0.333-0.861-0.478-1.302l34.681-20.005c4.784-2.76,6.425-8.875,3.666-13.659s-8.876-6.425-13.659-3.665L20,286.086     V133.114l131.726,75.982c0.294,0.17,0.594,0.327,0.89,0.494l-39.625,22.857c-4.784,2.76-6.425,8.875-3.666,13.658     c2.759,4.785,8.876,6.427,13.659,3.666l52.811-30.463c9.855,2.84,20.031,4.272,30.21,4.272s20.355-1.432,30.21-4.272     l40.426,23.319C265.511,261.447,259.113,283.379,259.113,306.781z M385.557,413.224c-27.887,0-54.271-10.763-74.295-30.305     c-0.134-0.132-0.272-0.259-0.414-0.382l-0.188-0.164c-0.124-0.107-0.251-0.212-0.37-0.326c-0.119-0.124-0.228-0.256-0.339-0.384     l-0.151-0.174c-0.123-0.142-0.25-0.28-0.382-0.414c-11.419-11.701-19.835-25.576-24.862-40.651     c-2.158-6.471-3.691-13.163-4.567-20c-0.576-4.493-0.874-9.047-0.874-13.643c0-19.765,5.422-38.285,14.846-54.163     c3.439-5.793,7.411-11.234,11.849-16.254c19.518-22.078,48.032-36.025,79.748-36.025c2.16,0,4.31,0.072,6.45,0.201     c6.805,0.408,13.496,1.458,20,3.124c17.855,4.573,34.306,13.766,47.846,26.98c0.134,0.132,0.272,0.259,0.414,0.382l0.179,0.155     c0.129,0.112,0.262,0.221,0.371,0.326c0.122,0.126,0.231,0.26,0.345,0.391l0.153,0.176c0.123,0.142,0.251,0.28,0.382,0.414     C481.238,252.508,492,278.894,492,306.781C492,365.474,444.25,413.224,385.557,413.224z" fill="#e50303" data-original="#000000" style=""/>
			<path d="M460.068,265.126c-1.532-2.73-4.255-4.586-7.355-5.014c-3.1-0.422-6.224,0.621-8.438,2.835l-32.268,32.268l-2.081,2.081     l-43.128,43.128l-25.074,25.074c-2.214,2.214-3.263,5.337-2.835,8.438c0.428,3.102,2.283,5.823,5.014,7.355     c12.692,7.119,27.096,10.883,41.654,10.883c47.086,0,85.394-38.307,85.394-85.393     C470.951,292.223,467.187,277.819,460.068,265.126z M385.557,372.174c-6.555,0-13.067-0.997-19.297-2.927l81.764-81.764     c1.93,6.229,2.927,12.743,2.927,19.298C450.95,342.839,421.614,372.174,385.557,372.174z" fill="#e50303" data-original="#000000" style=""/>
		</g>
	</g>
</g>
<g xmlns="http://www.w3.org/2000/svg">
</g>
<g xmlns="http://www.w3.org/2000/svg">
</g>
<g xmlns="http://www.w3.org/2000/svg">
</g>
<g xmlns="http://www.w3.org/2000/svg">
</g>
<g xmlns="http://www.w3.org/2000/svg">
</g>
<g xmlns="http://www.w3.org/2000/svg">
</g>
<g xmlns="http://www.w3.org/2000/svg">
</g>
<g xmlns="http://www.w3.org/2000/svg">
</g>
<g xmlns="http://www.w3.org/2000/svg">
</g>
<g xmlns="http://www.w3.org/2000/svg">
</g>
<g xmlns="http://www.w3.org/2000/svg">
</g>
<g xmlns="http://www.w3.org/2000/svg">
</g>
<g xmlns="http://www.w3.org/2000/svg">
</g>
<g xmlns="http://www.w3.org/2000/svg">
</g>
<g xmlns="http://www.w3.org/2000/svg">
</g>
</g></svg>
