<?xml version="1.0"?>
<svg xmlns="http://www.w3.org/2000/svg" xmlns:xlink="http://www.w3.org/1999/xlink" xmlns:svgjs="http://svgjs.com/svgjs" version="1.1" width="512" height="512" x="0" y="0" viewBox="0 0 512.004 512.004" style="enable-background:new 0 0 512 512" xml:space="preserve" class=""><g>
<g xmlns="http://www.w3.org/2000/svg">
	<g>
		<path d="M509.502,153.475L358.53,2.503c-3.337-3.336-8.73-3.336-12.066,0L104.902,244.065c-3.337,3.336-3.337,8.73,0,12.066    l150.972,150.972c1.664,1.664,3.849,2.5,6.033,2.5c2.185,0,4.369-0.836,6.033-2.5l241.562-241.562    C512.838,162.205,512.838,156.812,509.502,153.475z M261.907,389.004L123.002,250.098L352.497,20.603l138.906,138.906    L261.907,389.004z" fill="#e90b0b" data-original="#000000" style="" class=""/>
	</g>
</g>
<g xmlns="http://www.w3.org/2000/svg">
	<g>
		<path d="M356.115,0.805c-3.251-1.51-7.108-0.836-9.651,1.698L104.911,244.065c-2.543,2.543-3.217,6.4-1.698,9.651    c1.417,3.021,4.437,4.915,7.723,4.915c0.256,0,0.512-0.017,0.768-0.034l221.431-20.13c4.105-0.375,7.356-3.627,7.731-7.731    l20.13-221.431C361.321,5.729,359.366,2.333,356.115,0.805z M324.508,222.117l-190.874,17.348l208.23-208.23L324.508,222.117z" fill="#e90b0b" data-original="#000000" style="" class=""/>
	</g>
</g>
<g xmlns="http://www.w3.org/2000/svg">
	<g>
		<path d="M509.493,153.475L358.522,2.504c-2.338-2.347-5.828-3.115-8.934-1.988c-3.115,1.126-5.299,3.951-5.598,7.253    l-16.811,184.96c-0.239,2.679,0.802,5.325,2.807,7.125c1.579,1.417,3.61,2.176,5.692,2.176c0.563,0,1.135-0.051,1.681-0.179    l167.791-33.98c3.081-0.623,5.564-2.884,6.477-5.897S511.721,155.694,509.493,153.475z M345.218,182.856l14.123-155.401    l126.857,126.848L345.218,182.856z" fill="#e90b0b" data-original="#000000" style="" class=""/>
	</g>
</g>
<g xmlns="http://www.w3.org/2000/svg">
	<g>
		<path d="M302.253,227.596c-1.792-2.005-4.429-3.038-7.125-2.807l-184.96,16.811c-3.302,0.299-6.127,2.483-7.253,5.598    c-1.126,3.106-0.35,6.596,1.988,8.934l150.972,150.972c1.621,1.621,3.806,2.5,6.033,2.5c0.828,0,1.655-0.12,2.475-0.35    c3.004-0.913,5.274-3.396,5.896-6.477l33.98-167.791C304.796,232.34,304.053,229.601,302.253,227.596z M256.702,383.79    L129.854,256.942l155.401-14.131L256.702,383.79z" fill="#e90b0b" data-original="#000000" style="" class=""/>
	</g>
</g>
<g xmlns="http://www.w3.org/2000/svg">
	<g>
		<path d="M134.035,437.703c-3.337-3.336-8.73-3.336-12.066,0l-59.733,59.733c-3.336,3.337-3.336,8.73,0,12.066    c1.664,1.664,3.849,2.5,6.033,2.5s4.369-0.836,6.033-2.5l59.733-59.733C137.372,446.433,137.372,441.04,134.035,437.703z" fill="#e90b0b" data-original="#000000" style="" class=""/>
	</g>
</g>
<g xmlns="http://www.w3.org/2000/svg">
	<g>
		<path d="M142.569,369.437c-3.337-3.336-8.73-3.336-12.066,0l-128,128c-3.336,3.337-3.336,8.73,0,12.066    c1.664,1.664,3.849,2.5,6.033,2.5c2.185,0,4.369-0.836,6.033-2.5l128-128C145.905,378.166,145.905,372.773,142.569,369.437z" fill="#e90b0b" data-original="#000000" style="" class=""/>
	</g>
</g>
<g xmlns="http://www.w3.org/2000/svg">
	<g>
		<path d="M31.635,420.637c-3.337-3.336-8.73-3.336-12.066,0L2.502,437.703c-3.336,3.337-3.336,8.73,0,12.066    c1.664,1.664,3.849,2.5,6.033,2.5c2.185,0,4.369-0.836,6.033-2.5l17.067-17.067C34.972,429.366,34.972,423.973,31.635,420.637z" fill="#e90b0b" data-original="#000000" style="" class=""/>
	</g>
</g>
<g xmlns="http://www.w3.org/2000/svg">
	<g>
		<path d="M82.835,369.437c-3.337-3.336-8.73-3.336-12.066,0l-25.6,25.6c-3.337,3.337-3.337,8.73,0,12.066    c1.664,1.664,3.849,2.5,6.033,2.5c2.185,0,4.369-0.836,6.033-2.5l25.6-25.6C86.172,378.166,86.172,372.773,82.835,369.437z" fill="#e90b0b" data-original="#000000" style="" class=""/>
	</g>
</g>
<g xmlns="http://www.w3.org/2000/svg">
	<g>
		<path d="M142.569,309.703c-3.337-3.336-8.73-3.336-12.066,0l-34.133,34.133c-3.337,3.337-3.337,8.73,0,12.066    c1.664,1.664,3.849,2.5,6.033,2.5c2.185,0,4.369-0.836,6.033-2.5l34.133-34.133C145.905,318.433,145.905,313.04,142.569,309.703z" fill="#e90b0b" data-original="#000000" style="" class=""/>
	</g>
</g>
<g xmlns="http://www.w3.org/2000/svg">
	<g>
		<path d="M185.235,326.77c-3.337-3.337-8.73-3.337-12.066,0l-17.067,17.067c-3.337,3.337-3.337,8.73,0,12.066    c1.664,1.664,3.849,2.5,6.033,2.5c2.185,0,4.369-0.836,6.033-2.5l17.067-17.067C188.572,335.5,188.572,330.107,185.235,326.77z" fill="#e90b0b" data-original="#000000" style="" class=""/>
	</g>
</g>
<g xmlns="http://www.w3.org/2000/svg">
	<g>
		<path d="M185.235,386.504c-3.337-3.337-8.73-3.337-12.066,0l-25.6,25.6c-3.337,3.337-3.337,8.73,0,12.066    c1.664,1.664,3.849,2.5,6.033,2.5c2.185,0,4.369-0.836,6.033-2.5l25.6-25.6C188.572,395.233,188.572,389.84,185.235,386.504z" fill="#e90b0b" data-original="#000000" style="" class=""/>
	</g>
</g>
<g xmlns="http://www.w3.org/2000/svg">
</g>
<g xmlns="http://www.w3.org/2000/svg">
</g>
<g xmlns="http://www.w3.org/2000/svg">
</g>
<g xmlns="http://www.w3.org/2000/svg">
</g>
<g xmlns="http://www.w3.org/2000/svg">
</g>
<g xmlns="http://www.w3.org/2000/svg">
</g>
<g xmlns="http://www.w3.org/2000/svg">
</g>
<g xmlns="http://www.w3.org/2000/svg">
</g>
<g xmlns="http://www.w3.org/2000/svg">
</g>
<g xmlns="http://www.w3.org/2000/svg">
</g>
<g xmlns="http://www.w3.org/2000/svg">
</g>
<g xmlns="http://www.w3.org/2000/svg">
</g>
<g xmlns="http://www.w3.org/2000/svg">
</g>
<g xmlns="http://www.w3.org/2000/svg">
</g>
<g xmlns="http://www.w3.org/2000/svg">
</g>
</g></svg>
